{
  "title": "PINK (2016) 1CD x264 DesiSCR Rip AAC 2.0 -DDR",
  "uid": 15847245,
  "size": 737489893,
  "categoryP": "video",
  "categoryS": "movies",
  "magnet": "?xt=urn:btih:d106efdd4aa0c54fbbc3c6dd80f84864104126e6&amp;dn=PINK+%282016%29+1CD+x264+DesiSCR+Rip+AAC+2.0+-DDR&amp;tr=udp%3A%2F%2Ftracker.leechers-paradise.org%3A6969&amp;tr=udp%3A%2F%2Fzer0day.ch%3A1337&amp;tr=udp%3A%2F%2Fopen.demonii.com%3A1337&amp;tr=udp%3A%2F%2Ftracker.coppersurfer.tk%3A6969&amp;tr=udp%3A%2F%2Fexodus.desync.com%3A6969",
  "seeders": 77,
  "leechers": 38,
  "uploader": "SaM",
  "files": 3,
  "time": 1474116454,
  "description": "1 CD x264 DesiSCR Rip\r\n\r\nHindi AAC Stereo Audio\r\n\r\n\r\n\r\nSCREENSHOTS\r\n \nhttp://extraimago.com/image/wdAt \nhttp://extraimago.com/image/wdAo \nhttp://extraimago.com/image/wdAH \nhttp://extraimago.com/image/wdAF \nhttp://extraimago.com/image/wdAD \nhttp://extraimago.com/image/wdA5 \nhttp://extraimago.com/image/wdAg \nhttp://extraimago.com/image/wdAA \nhttp://extraimago.com/image/wdAv \nhttp://extraimago.com/image/wdAu \nhttp://extraimago.com/image/wdAV \nhttp://extraimago.com/image/wdA6 \nhttp://extraimago.com/image/wdAx\r\n\r\nSpecs:\r\nSource: DesiSCR @ ICTV\r\n\r\nFormat : Matroska\r\nFile size : 697 MiB\r\nDuration : 2 h 15 min\r\nOverall bit rate mode : Variable\r\nOverall bit rate : 718 kb/s\r\n\r\nVideo\r\nID : 1\r\nFormat : AVC\r\nFormat/Info : Advanced Video Codec\r\nFormat profile :   \r\nFormat settings, CABAC : Yes\r\nFormat settings, ReFrames : 16 frames\r\nCodec ID : V_MPEG4/ISO/AVC\r\nDuration : 2 h 15 min\r\nBit rate mode : Variable\r\nBit rate : 652 kb/s\r\nMaximum bit rate : 62.5 Mb/s\r\nWidth : 640 pixels\r\nHeight : 272 pixels\r\nDisplay aspect ratio : 2.35:1\r\nFrame rate mode : Constant\r\nFrame rate : 25.000 FPS\r\nColor space : YUV\r\nChroma subsampling : 4:2:0\r\nBit depth : 8 bits\r\nScan type : Progressive\r\nBits/(Pixel*Frame) : 0.150\r\nStream size : 633 MiB (91%)\r\nDefault : Yes\r\nForced : No\r\nColor range : Limited\r\nColor primaries : BT.601 NTSC\r\nTransfer characteristics : BT.601\r\nMatrix coefficients : BT.601\r\n\r\nAudio\r\nID : 2\r\nFormat : AAC\r\nFormat/Info : Advanced Audio Codec\r\nFormat profile : LC\r\nCodec ID : A_AAC\r\nDuration : 2 h 15 min\r\nBit rate : 64.0 kb/s\r\nChannel(s) : 2 channels\r\nChannel positions : Front: L R\r\nSampling rate : 48.0 kHz\r\nFrame rate : 46.875 FPS (1024 spf)\r\nCompression mode : Lossy\r\nDelay relative to video : 9 ms\r\nStream size : 62.1 MiB (9%)\r\nLanguage : Hindi\r\nDefault : Yes\r\nForced : No",
  "parsed": {
    "xt": "urn:btih:d106efdd4aa0c54fbbc3c6dd80f84864104126e6",
    "dn": "PINK (2016) 1CD x264 DesiSCR Rip AAC 2.0 -DDR",
    "tr": [
      "udp://exodus.desync.com:6969",
      "udp://open.demonii.com:1337",
      "udp://tracker.coppersurfer.tk:6969",
      "udp://tracker.leechers-paradise.org:6969",
      "udp://zer0day.ch:1337"
    ],
    "infoHash": "d106efdd4aa0c54fbbc3c6dd80f84864104126e6",
    "infoHashBuffer": {
      "type": "Buffer",
      "data": [
        209,
        6,
        239,
        221,
        74,
        160,
        197,
        79,
        187,
        195,
        198,
        221,
        128,
        248,
        72,
        100,
        16,
        65,
        38,
        230
      ]
    },
    "name": "PINK (2016) 1CD x264 DesiSCR Rip AAC 2.0 -DDR",
    "announce": [
      "udp://exodus.desync.com:6969",
      "udp://open.demonii.com:1337",
      "udp://tracker.coppersurfer.tk:6969",
      "udp://tracker.leechers-paradise.org:6969",
      "udp://zer0day.ch:1337"
    ],
    "urlList": []
  },
  "previous": 115,
  "peers": 39,
  "last_updated": "2016-12-25T14:37:09.792Z"
}